<svg xmlns="http://www.w3.org/2000/svg" width="25.594" height="22" viewBox="0 0 25.594 22">
  <defs>
    <style>
      .cls-1 {
        fill: #062033;
        fill-rule: evenodd;
        opacity: 0.2;
      }
    </style>
  </defs>
  <path id="google_plus" data-name="google plus" class="cls-1" d="M849.819,4665.32v3.91h-1.6v-3.91h-4v-1.59h4v-3.91h1.6v3.91h4v1.59h-4Zm-11.064-3.95a4.091,4.091,0,0,1,2.252,3.73,4.336,4.336,0,0,1-1.982,3.36c-1.089.84-1.3,1.19-1.3,1.9,0,0.6,1.167,1.64,1.777,2.06a4.56,4.56,0,0,1,2.311,4.31c0,2.4-2.311,5.07-6.585,5.07-3.75,0-7.013-1.79-7.013-4.19,0-2.43,2.986-4.78,6.735-4.78,0.408,0,.783-0.01,1.17-0.01a2.578,2.578,0,0,1-.919-1.84,2.729,2.729,0,0,1,.343-1.26c-0.2.01-.412-0.02-0.626-0.02a4.9,4.9,0,0,1-5.143-4.89c0-2.61,2.849-5.01,5.876-5.01h6.752l-1.511,1.57h-2.141Zm-3.087,12.08c-2.592-.02-4.914,1.56-4.914,3.45,0,1.94,1.872,3.35,4.464,3.35,3.643,0,4.913-1.31,4.913-3.25a2.917,2.917,0,0,0-.083-0.68c-0.285-1.1-1.293-1.64-2.7-2.6A5.938,5.938,0,0,0,835.668,4673.45Zm2.912-8.32c-0.3-2.24-2.029-4.05-3.769-4.1s-2.906,1.67-2.605,3.91,1.953,4.11,3.693,4.16S838.88,4667.37,838.58,4665.13Z" transform="translate(-828.219 -4659.81)"/>
</svg>
