<svg xmlns="http://www.w3.org/2000/svg" width="25.594" height="16.41" viewBox="0 0 25.594 16.41">
  <defs>
    <style>
      .cls-1 {
        fill: #062033;
        fill-rule: evenodd;
        opacity: 0.2;
      }
    </style>
  </defs>
  <path id="behance" class="cls-1" d="M845.03,4488.2h6.377v1.63H845.03v-1.63Zm8.8,9.64h-8.3c0.089,2.02,1.068,2.76,2.826,2.76,1.27,0,2.295-.41,2.5-1.12h2.532c-0.889,2.73-2.532,3.51-5.138,3.51-3.628,0-5.876-2.5-5.876-6.08a5.788,5.788,0,0,1,5.876-6.11C852.156,4490.8,854.048,4494.29,853.826,4497.84Zm-8.3-2.36h5.143c-0.29-1.61-.982-2.28-2.517-2.28A2.369,2.369,0,0,0,845.523,4495.48Zm-3.991,2.57c0,3.24-2.739,4.63-5.611,4.63h-7.7V4486.6H835.7c3.026,0,5.074,1.09,5.074,4.07a3.5,3.5,0,0,1-2.161,3.33A3.9,3.9,0,0,1,841.532,4498.05Zm-6.845-8.74h-3.272v3.74h3.539a1.844,1.844,0,0,0,2.137-1.91C837.091,4489.62,835.933,4489.31,834.687,4489.31Zm0.533,6.13h-3.805v4.38h3.739c1.38,0,2.581-.44,2.581-2.1C837.735,4496.09,836.712,4495.44,835.22,4495.44Z" transform="translate(-828.219 -4486.59)"/>
</svg>
