<svg xmlns="http://www.w3.org/2000/svg" width="25.594" height="20.79" viewBox="0 0 25.594 20.79">
  <defs>
    <style>
      .cls-1 {
        fill: #062033;
        fill-rule: evenodd;
        opacity: 0.2;
      }
    </style>
  </defs>
  <path id="twitter" class="cls-1" d="M845.631,4539.6a5.4,5.4,0,0,1,4.152,1.65,8.667,8.667,0,0,0,2.69-.91l0.654-.36a5.279,5.279,0,0,1-1.7,2.47,2.512,2.512,0,0,1-.577.41v0.01a10.064,10.064,0,0,0,2.973-.8v0.01a8.535,8.535,0,0,1-1.781,2.04c-0.274.22-.547,0.44-0.82,0.65a15.153,15.153,0,0,1-.244,3.38c-1.312,5.89-4.787,9.89-10.288,11.61a15.7,15.7,0,0,1-7.432.3,18.946,18.946,0,0,1-3.088-1,14.8,14.8,0,0,1-1.486-.77c-0.154-.09-0.308-0.19-0.461-0.28a9.216,9.216,0,0,0,1.678.06c0.516-.08,1.023-0.06,1.5-0.16a10.787,10.787,0,0,0,3.152-1.14,5.964,5.964,0,0,0,1.422-.93,4.58,4.58,0,0,1-1.563-.28,5.29,5.29,0,0,1-3.331-3.36,5.194,5.194,0,0,0,2.345-.11,3.758,3.758,0,0,1-1.717-.69,5.042,5.042,0,0,1-2.473-4.49c0.179,0.08.359,0.17,0.538,0.25a5.119,5.119,0,0,0,1.1.31,1.441,1.441,0,0,0,.717.06h-0.025c-0.265-.3-0.695-0.51-0.961-0.84a5.362,5.362,0,0,1-1.179-4.76,6,6,0,0,1,.564-1.37c0.008,0,.017.01,0.025,0.01a3.011,3.011,0,0,0,.475.55,9.826,9.826,0,0,0,1.563,1.5,15.43,15.43,0,0,0,6.419,3.1,10.7,10.7,0,0,0,2.357.31,4.9,4.9,0,0,1,.026-2.47,5.2,5.2,0,0,1,2.973-3.53,6.648,6.648,0,0,1,1.166-.35C845.2,4539.65,845.418,4539.63,845.631,4539.6Z" transform="translate(-828.219 -4539.59)"/>
</svg>
