<svg xmlns="http://www.w3.org/2000/svg" xmlns:xlink="http://www.w3.org/1999/xlink" width="16.78" height="13.03" viewBox="0 0 16.78 13.03">
  <defs>
    <style>
      .cls-1 {
        fill: #3c4042;
        fill-rule: evenodd;
        filter: url(#filter);
      }
    </style>
    <filter id="filter" x="1460" y="5048" width="16.78" height="13.03" filterUnits="userSpaceOnUse">
      <feFlood result="flood" flood-color="#fff"/>
      <feComposite result="composite" operator="in" in2="SourceGraphic"/>
      <feBlend result="blend" in2="SourceGraphic"/>
    </filter>
  </defs>
  <path id="logo_-_Twitter_копия" data-name="logo - Twitter копия" class="cls-1" d="M1476.78,5049.5l-1.57,1.5v0.25a3.023,3.023,0,0,1-.12.79,8.627,8.627,0,0,1-3.56,6.96c-5.57,4.25-11.54.5-11.54,0.5,4.72,0,4.72-1.5,4.72-1.5-1.04,0-3.14-2-3.14-2a1.647,1.647,0,0,0,1.57,0c-2.62-1.5-2.62-3-2.62-3a1.647,1.647,0,0,0,1.57,0,3.348,3.348,0,0,1-1.05-4.5c0.53,2.5,7.35,3.5,7.35,3.5l0.08-.04a6.116,6.116,0,0,1-.08-0.96,3.13,3.13,0,0,1,3.41-3,3.492,3.492,0,0,1,2.58,1.14l0.3-.14,1.58-1-1.05,2Z" transform="translate(-1460 -5048)"/>
</svg>
