<svg xmlns="http://www.w3.org/2000/svg" xmlns:xlink="http://www.w3.org/1999/xlink" width="14.69" height="14" viewBox="0 0 14.69 14">
  <defs>
    <style>
      .cls-1 {
        fill: #3c4042;
        fill-rule: evenodd;
        filter: url(#filter);
      }
    </style>
    <filter id="filter" x="1558.31" y="5047.5" width="14.69" height="14" filterUnits="userSpaceOnUse">
      <feFlood result="flood" flood-color="#fff"/>
      <feComposite result="composite" operator="in" in2="SourceGraphic"/>
      <feBlend result="blend" in2="SourceGraphic"/>
    </filter>
  </defs>
  <path id="logo_-_LinkedIn_копия" data-name="logo - LinkedIn копия" class="cls-1" d="M1559.71,5047.5h11.89a1.371,1.371,0,0,1,1.4,1.33v11.34a1.371,1.371,0,0,1-1.4,1.33h-11.89a1.371,1.371,0,0,1-1.4-1.33v-11.34A1.371,1.371,0,0,1,1559.71,5047.5Zm3.32,11.5v-5.9h-1.99v5.9h1.99Zm-1.11-6.52a0.985,0.985,0,1,0-.01,0h0.01Zm2.69,6.52h2.12v-3.18a1.272,1.272,0,0,1,.07-0.46,1.133,1.133,0,0,1,1.06-.7c0.74,0,.98.53,0.98,1.29V5059h2.06v-3.27c0-1.75-.95-2.72-2.31-2.72a2.081,2.081,0,0,0-1.87.96h0.01v-0.83h-2.12c0.02,0.53,0,5.86,0,5.86h0Z" transform="translate(-1558.31 -5047.5)"/>
</svg>
