<svg xmlns="http://www.w3.org/2000/svg" xmlns:xlink="http://www.w3.org/1999/xlink" width="16.78" height="13.031" viewBox="0 0 16.78 13.031">
  <defs>
    <style>
      .cls-1 {
        fill: #3c4042;
        fill-rule: evenodd;
        filter: url(#filter);
      }
    </style>
    <filter id="filter" x="1460" y="46" width="16.78" height="13.031" filterUnits="userSpaceOnUse">
      <feFlood result="flood" flood-color="#cf38ef"/>
      <feComposite result="composite" operator="in" in2="SourceGraphic"/>
      <feBlend result="blend" in2="SourceGraphic"/>
    </filter>
  </defs>
  <path id="logo_-_Twitter" data-name="logo - Twitter" class="cls-1" d="M1476.78,47.5l-1.57,1.5v0.25a2.965,2.965,0,0,1-.12.79,8.622,8.622,0,0,1-3.56,6.96c-5.57,4.249-11.54.5-11.54,0.5,4.72,0,4.72-1.5,4.72-1.5-1.04,0-3.14-2-3.14-2a1.648,1.648,0,0,0,1.57,0c-2.62-1.5-2.62-3-2.62-3a1.645,1.645,0,0,0,1.57,0,3.348,3.348,0,0,1-1.05-4.5c0.53,2.5,7.35,3.5,7.35,3.5l0.08-.042a6.032,6.032,0,0,1-.08-0.959,3.133,3.133,0,0,1,3.41-3,3.476,3.476,0,0,1,2.58,1.146l0.3-.146,1.58-1-1.05,2Z" transform="translate(-1460 -46)"/>
</svg>
